<svg width="17" height="18" fill="none" xmlns="http://www.w3.org/2000/svg"><path d="M16.507 3.974c-.316-1.09-.942-1.953-1.859-2.563C13.491.64 12.159.367 11.01.201 9.42-.03 7.979-.061 6.605.1c-1.287.154-2.256.397-3.14.79C1.732 1.66.692 2.906.374 4.592a22.3 22.3 0 00-.32 2.265C-.084 8.49.043 9.934.44 11.273c.39 1.305 1.068 2.238 2.075 2.85.256.157.585.27.903.378.18.061.355.121.5.187.132.06.132.07.13.177-.01.928 0 2.747 0 2.747l.004.388h.72l.118-.11c.077-.07 1.864-1.74 2.5-2.412l.088-.093c.109-.123.109-.123.221-.124a79.78 79.78 0 002.612-.095c1.058-.055 2.283-.154 3.437-.619 1.057-.426 1.828-1.104 2.291-2.011.484-.948.77-1.974.878-3.137.19-2.045.055-3.82-.41-5.425zm-3.804 7.953c-.265.418-.66.708-1.127.896-.342.137-.69.108-1.026-.03-2.82-1.153-5.031-2.97-6.492-5.584-.302-.538-.51-1.125-.751-1.694-.05-.116-.046-.254-.068-.382.02-.919.75-1.437 1.486-1.593.282-.06.531.035.74.23a6.275 6.275 0 011.38 1.845c.15.304.083.573-.174.799-.053.047-.109.09-.167.133-.585.425-.67.747-.36 1.388.532 1.09 1.414 1.822 2.554 2.276.3.119.584.06.813-.176.032-.03.066-.061.089-.098.449-.724 1.102-.653 1.704-.24.395.272.78.56 1.17.836.596.424.591.821.23 1.394zM8.964 4.696c-.133 0-.266.01-.397.032a.405.405 0 01-.466-.323.393.393 0 01.333-.449c.174-.029.353-.043.53-.043 1.753 0 3.18 1.379 3.18 3.074a2.9 2.9 0 01-.045.512.401.401 0 01-.466.321.393.393 0 01-.332-.45 2.2 2.2 0 00.033-.383c0-1.262-1.064-2.291-2.37-2.291zm1.965 2.348a.399.399 0 01-.405.391.399.399 0 01-.404-.391c0-.647-.546-1.174-1.215-1.174a.399.399 0 01-.404-.392c0-.215.182-.39.404-.39 1.117 0 2.024.877 2.024 1.956zm2.312.87a.402.402 0 01-.395.304.393.393 0 01-.395-.478 3.4 3.4 0 00.088-.768c0-1.902-1.602-3.45-3.569-3.45a3.71 3.71 0 00-.793.086.403.403 0 01-.484-.295.39.39 0 01.305-.468c.316-.07.643-.106.972-.106 2.415 0 4.378 1.899 4.378 4.233 0 .318-.036.634-.107.941z" fill="#fff"/></svg>