<svg width="360" height="146" fill="none" xmlns="http://www.w3.org/2000/svg"><g clip-path="url(#clip0)"><path d="M133.484 137.158a6.437 6.437 0 01-.836 3.216 5.416 5.416 0 01-2.273 2.161c-.468.24-.971.409-1.491.5-.601.092-1.209.134-1.818.125a5.97 5.97 0 01-2.018-.268 6.402 6.402 0 01-1.818-1.197v-1.125a6.63 6.63 0 002.018 1.322c.634.26 1.314.394 2 .393a5.773 5.773 0 002.945-.679 4.57 4.57 0 001.691-1.679c.232-.409.403-.848.509-1.304.122-.479.183-.971.182-1.465a5.221 5.221 0 00-.182-1.321 6.61 6.61 0 00-.581-1.286 5.393 5.393 0 00-1.419-1.572 5.414 5.414 0 00-5.454-.429 4.584 4.584 0 00-1.491 1.251 5.312 5.312 0 00-1 2.304 11.817 11.817 0 00-.163 2.125v10.163h-1.018V138.23c-.013-.832.054-1.663.2-2.483a5.86 5.86 0 011.218-2.572 4.959 4.959 0 011.654-1.357 5.9 5.9 0 012.927-.697 6.758 6.758 0 012.982.679 5.675 5.675 0 012.291 2.054c.637.987.965 2.136.945 3.304zm13.854.215c0 .759-.152 1.511-.449 2.212a5.764 5.764 0 01-1.277 1.874 5.888 5.888 0 01-1.912 1.249 5.966 5.966 0 01-2.253.434 6.359 6.359 0 01-2.428-.448 6.273 6.273 0 01-2.062-1.338 5.65 5.65 0 01-1.377-1.952 5.56 5.56 0 01-.441-2.335 5.796 5.796 0 01.448-2.356 5.866 5.866 0 011.37-1.984 5.906 5.906 0 011.983-1.337 6.008 6.008 0 012.362-.449 5.903 5.903 0 012.945.75 5.839 5.839 0 012.127 2.268l-8.345 5.591-.509-.697 7.545-5.09a4.318 4.318 0 00-1.818-1.34 5.776 5.776 0 00-2.054-.411 5.25 5.25 0 00-2.491.608 4.929 4.929 0 00-1.818 1.786 5.39 5.39 0 00-.764 2.858 4.93 4.93 0 00.364 1.929c.25.613.62 1.171 1.091 1.643a4.951 4.951 0 003.636 1.482 5.135 5.135 0 001.965-.354 5.073 5.073 0 001.671-1.074 4.623 4.623 0 001.491-3.466l1-.053zm10.909-6.002l-1.709 2.894c-.32.558-.684 1.09-1.091 1.59a4.227 4.227 0 01-.964.839 3.3 3.3 0 011.473.322c.42.175.789.451 1.072.803.379.443.625.982.71 1.554.092.591.128 1.189.109 1.786v1.787h-.946v-2.001a10.99 10.99 0 000-1.429 2.36 2.36 0 00-.491-1.107 2.325 2.325 0 00-1.018-.715c-.44-.143-.9-.215-1.363-.214h-3.418v5.358h-.946v-11.467h.946v5.234h1.927c.323-.003.642-.082.927-.232.285-.157.547-.349.782-.572a8.16 8.16 0 00.745-.875c.265-.361.508-.736.727-1.125l1.382-2.43h1.146zm11.054 11.521h-.928v-10.717h-.8a9.159 9.159 0 00-1.818.143 5.512 5.512 0 00-1.581.536 4.616 4.616 0 00-2.273 2.626 8.605 8.605 0 00-.436 2.965v4.447h-2.528v-.875h1.637v-3.572c-.022-.881.051-1.761.218-2.626a5.552 5.552 0 011.363-2.554 5.577 5.577 0 012.219-1.465 9.034 9.034 0 013.199-.5h1.818v11.592h-.09zm14.544 0h-.945v-4.59a13.457 13.457 0 00-.146-2.233 5.295 5.295 0 00-1.018-2.268 5.134 5.134 0 00-1.291-1.144 4.855 4.855 0 00-2.545-.66 5.063 5.063 0 00-2.133.405 4.984 4.984 0 00-1.758 1.256 5.164 5.164 0 00-1.418 3.572c-.016.666.11 1.328.37 1.943s.648 1.17 1.139 1.629a5.645 5.645 0 002.802 1.362 5.695 5.695 0 003.107-.326 6.82 6.82 0 001.818-1.286v1.054a5.985 5.985 0 01-1.818 1.107c-.698.28-1.446.42-2.2.411a6.503 6.503 0 01-4.345-1.554 5.357 5.357 0 01-1.48-1.931 5.276 5.276 0 01-.465-2.373 5.942 5.942 0 011.654-4.216 5.96 5.96 0 012.098-1.478 6.063 6.063 0 012.538-.469 5.849 5.849 0 012.818.661 5.15 5.15 0 011.637 1.322c.469.607.826 1.29 1.054 2.018.285 1.036.414 2.107.382 3.18v4.608h.145zm16.363 0h-1.109l-2.073-10.163-.109-.465-.127.108-.2.66-2.6 8.306c-.218.75-.345 1.143-.382 1.215a.89.89 0 01-.31.412.918.918 0 01-.49.177.67.67 0 01-.329-.067.643.643 0 01-.252-.219 6.036 6.036 0 01-.6-1.518l-2.546-8.27v-.804l-.2.679-2.363 9.949h-1.073l2.273-10.306c.065-.429.213-.841.436-1.215a.78.78 0 01.6-.25.73.73 0 01.655.322c.138.228.242.475.309.732l2.381 7.502.528 1.786.109.339c.03.069.066.135.109.197a.32.32 0 000-.107l.2-.429.527-1.786 2.382-7.502c.064-.255.162-.502.291-.732a.745.745 0 01.672-.322.832.832 0 01.475.138.8.8 0 01.307.38c.106.31.191.626.255.947l2.254 10.306zm10.69 0h-.927v-5.93h-7.272v5.93h-.891v-11.521h.927v4.716h7.273v-4.716h.89v11.521zm14.545-5.769a5.764 5.764 0 01-.46 2.319 5.852 5.852 0 01-1.358 1.95 5.973 5.973 0 01-1.947 1.297 6.06 6.06 0 01-4.614 0 5.988 5.988 0 01-1.948-1.297 6.056 6.056 0 01-1.761-4.26c0-1.591.632-3.12 1.761-4.26a5.988 5.988 0 011.948-1.297 6.06 6.06 0 014.614 0c.73.301 1.392.742 1.947 1.297a5.771 5.771 0 011.359 1.94c.312.731.469 1.518.459 2.311zm-.945 0a5.061 5.061 0 00-1.455-3.573 5.095 5.095 0 00-1.664-1.11 5.164 5.164 0 00-5.608 1.11 5.308 5.308 0 00-1.472 3.662c0 1.36.526 2.669 1.472 3.662a5.082 5.082 0 001.663 1.116 5.148 5.148 0 005.609-1.116c.478-.5.846-1.091 1.08-1.736a4.907 4.907 0 00.284-2.015h.091zm15.454.25c0 .759-.153 1.511-.449 2.212a5.767 5.767 0 01-1.278 1.874 5.883 5.883 0 01-1.911 1.249 5.97 5.97 0 01-2.253.434 6.364 6.364 0 01-2.429-.448 6.273 6.273 0 01-2.062-1.338 5.676 5.676 0 01-1.377-1.952 5.592 5.592 0 01-.441-2.335 5.839 5.839 0 01.454-2.354 5.92 5.92 0 011.364-1.986 6 6 0 011.995-1.335 6.077 6.077 0 012.369-.451 5.903 5.903 0 012.945.75 5.84 5.84 0 012.018 2.268l-8.345 5.591-.527-.697 7.563-5.09a4.383 4.383 0 00-1.818-1.34 5.558 5.558 0 00-2.054-.411 5.225 5.225 0 00-2.473.608 4.686 4.686 0 00-1.818 1.786 5.39 5.39 0 00-.764 2.858c-.013.66.108 1.317.358 1.931.25.614.623 1.172 1.097 1.641a4.902 4.902 0 001.659 1.117 4.969 4.969 0 001.977.365 5.143 5.143 0 003.636-1.428 4.743 4.743 0 001.109-1.582 4.665 4.665 0 00.382-1.884l1.073-.053zm19.544 5.519h-.945v-4.59a11.758 11.758 0 00-.146-2.233 5.072 5.072 0 00-1.018-2.268 4.537 4.537 0 00-1.694-1.358 4.62 4.62 0 00-2.142-.429 5.153 5.153 0 00-2.131.41 5.057 5.057 0 00-1.76 1.251 5.309 5.309 0 00-1.4 3.573c-.02.665.103 1.326.36 1.941a4.736 4.736 0 001.131 1.631 5.677 5.677 0 002.811 1.361 5.737 5.737 0 003.116-.325 6.82 6.82 0 001.818-1.286v1.054a5.853 5.853 0 01-1.818 1.107 5.65 5.65 0 01-2.2.411 6.448 6.448 0 01-4.327-1.554 5.474 5.474 0 01-1.439-1.943 5.388 5.388 0 01-.452-2.361 5.943 5.943 0 011.655-4.216 6.02 6.02 0 012.1-1.473 6.122 6.122 0 012.536-.474 5.795 5.795 0 012.818.661 5.02 5.02 0 011.654 1.322 6.068 6.068 0 011.037 2.018c.285 1.036.413 2.107.381 3.18v4.59h.055zm9.909-10.717h-2.382a8.626 8.626 0 00-1.473 0 2.36 2.36 0 00-1.443.716 2.28 2.28 0 00-.629 1.463v8.467h-.928v-7.074a9.514 9.514 0 010-1.786 3.177 3.177 0 01.873-1.786 3.047 3.047 0 011.327-.804 8.385 8.385 0 012.309-.232h2.327v1.036h.019zm12.872 5.126a5.698 5.698 0 01-.431 2.243 5.765 5.765 0 01-1.282 1.902 5.896 5.896 0 01-1.933 1.266 5.973 5.973 0 01-2.281.43 6.36 6.36 0 01-2.429-.448 6.273 6.273 0 01-2.062-1.338 5.663 5.663 0 01-1.377-1.952 5.576 5.576 0 01-.441-2.335 5.78 5.78 0 01.449-2.356 5.878 5.878 0 011.369-1.984 5.9 5.9 0 011.984-1.337 6 6 0 012.361-.449 5.907 5.907 0 012.946.75 5.856 5.856 0 012.181 2.072l-8.345 5.59-.509-.696 7.509-4.912a4.324 4.324 0 00-1.818-1.34 5.758 5.758 0 00-2.055-.41 5.233 5.233 0 00-2.49.607 4.947 4.947 0 00-1.819 1.786 5.401 5.401 0 00-.763 2.858c-.01.66.114 1.316.363 1.929.25.613.621 1.171 1.091 1.643.47.479 1.036.859 1.661 1.114a5.02 5.02 0 001.976.369 5.128 5.128 0 001.964-.355 5.051 5.051 0 001.672-1.074 4.676 4.676 0 001.115-1.579 4.606 4.606 0 00.376-1.886l1.018-.108zm11.417 5.591h-.981v-5.93h-7.273v5.93h-.945v-11.521h.945v4.716h7.273v-4.716h.945l.036 11.521zm10.454-10.717h-4.054v10.717h-.945v-10.717h-4.055v-.875h9.091v.875h-.037zm8.564 10.717h-1.655a6.245 6.245 0 01-4.4-1.572 5.354 5.354 0 01-1.317-1.87 5.274 5.274 0 01-.41-2.238 5.513 5.513 0 01.406-2.297 5.601 5.601 0 011.321-1.936 6.149 6.149 0 012.037-1.234 6.231 6.231 0 012.363-.374h1.655v.804h-1.455a5.425 5.425 0 00-2.247.341 5.323 5.323 0 00-1.898 1.231 4.893 4.893 0 00-1.236 3.394 4.573 4.573 0 001.218 3.25c.539.538 1.19.956 1.909 1.224a5.42 5.42 0 002.254.33h1.455v.947zm10.454-10.717h-4.073v10.717h-.927v-10.717h-4.073v-.875h9.091v.875h-.018zm10.999 7.52a2.713 2.713 0 01-.436 1.482 3.216 3.216 0 01-1.982 1.429 8.793 8.793 0 01-2.2.215h-3.018v-.876h3.127a6.87 6.87 0 002.291-.268c.395-.165.732-.441.968-.794.236-.353.361-.766.359-1.188a1.906 1.906 0 00-.254-1 2.125 2.125 0 00-.567-.677 2.175 2.175 0 00-.797-.395 8.711 8.711 0 00-2.182-.25h-2.945v-.875h2.909a6.027 6.027 0 001.509-.143c.506-.169.929-.52 1.182-.983.201-.329.308-.705.309-1.089a2.031 2.031 0 00-.655-1.501 3.431 3.431 0 00-1.174-.681 3.491 3.491 0 00-1.353-.176 3.778 3.778 0 00-2.709.965 3.794 3.794 0 00-.801 1.327 3.736 3.736 0 00-.199 1.53v7.145h-.945v-7.145a4.554 4.554 0 011.273-3.411 4.824 4.824 0 011.68-1.019 4.885 4.885 0 011.956-.267 3.993 3.993 0 011.661.232 3.938 3.938 0 011.411.893c.537.553.83 1.291.818 2.054.002.403-.072.803-.218 1.179a3.035 3.035 0 01-1.309 1.429 2.699 2.699 0 011.727 1c.417.506.647 1.136.655 1.786l-.091.072zm13.817-2.644a5.811 5.811 0 01-.466 2.317 5.903 5.903 0 01-1.352 1.952 6.009 6.009 0 01-1.953 1.293 6.092 6.092 0 01-4.62 0 5.987 5.987 0 01-1.953-1.293 6.086 6.086 0 01-1.748-4.26 6.09 6.09 0 011.748-4.26 6.003 6.003 0 011.953-1.293 6.111 6.111 0 014.62 0c.731.3 1.395.74 1.953 1.293a5.858 5.858 0 011.397 1.969 5.78 5.78 0 01.476 2.354l-.055-.072zm-.945 0a5.06 5.06 0 00-1.454-3.572 4.876 4.876 0 00-1.659-1.118 4.955 4.955 0 00-1.978-.364 5.053 5.053 0 00-1.971.365 4.992 4.992 0 00-1.665 1.099 5.308 5.308 0 00-1.472 3.662c0 1.36.526 2.669 1.472 3.661a5.13 5.13 0 003.636 1.509c.678 0 1.349-.133 1.974-.393a5.066 5.066 0 001.663-1.116 4.983 4.983 0 001.102-1.64 4.91 4.91 0 00.37-1.932l-.018-.161z" fill="#000"/><path fill-rule="evenodd" clip-rule="evenodd" d="M48.925 60.354l3.636-13.45.909 26.453c0 2.25-3.636 2.912-5.818 4.055-2.509 1.357-1.727-2.697-1.4-3.787l1.6-7.752 1.073-5.519zm20.162-16.558v-9.86a15.904 15.904 0 00-3.57-9.656 16.395 16.395 0 00-8.793-5.561c-2.327-.465-2.636-.322-3.636 1.893-3.382 8.234-11.09 38.331-13.09 47.458l-1.182 3.376c-4.981 14.7-7.018 28.757-8.981 44.136 9.672-6.377 13.236-21.434 13.472-32.008a41.63 41.63 0 003.363-.893c8.636-2.626 6.436-4.287 7.89 15.236a130.169 130.169 0 004.473 27.596c10.527-11.967 10.054-53.335 10.054-77.287v-4.43zm149.447-27.578h-4.508c-3.637.143-6.564 1.465-6.727 6.61l-12.363 67.32-2.218 12.127c0 5.251-1.819 12.146 5.617 12.146h1.109c9.091 0 30.617-9.913 31.453-19.862h-3.363c-18.835.41-20.217 20.541-20.217-7.734l1.127-9.931c.818-4.59.473-9.252 4-12.503a101.377 101.377 0 0022.09-6.305c.618-2.09-2.018-4.877-5.836-5.466a22.99 22.99 0 00-11.236 4.412l-4.491 1.107c.545-6.626 5.182-20.255 7.418-26.917 2.636-7.86 15.199-11.038 22.908-12.807-3.291-13.878-16.69-4.822-24.708-2.197h-.055zm-40.361 6.61a16.489 16.489 0 01-1.255 4.536c-4.199 10.288-17.908 25.97-23.544 29.668v-3.304l2.254-9.931 1.128-8.824c2.363-9.967-1.237-6.43 7.472-10.306 3.036-1.358 13.945-7.502 13.945-1.84zM143.265 47.1l-1.109 6.627c-1.127 19.13-5.999 38.67-3.381 57.389 0 4.251 1.236 3.483 3.745 1.107 0-3.751-1.164-10.378-.291-13.896l1.818-7.824c.8-1.036.491-5.197.746-6.751 2.509-15.361 14.435-15.468 23.344-26.507 4.163-5.18 19.999-29.382 19.999-36.616 0-10.324-23.126-5.68-33.417-3.412a8.359 8.359 0 01-3.818.268c-1.472-.553-2.709 4.127-2.854 4.305-4.109 1.786-4.763 5.037-7.6 8.002 0 1.268-.345 2.036.946 2.34l3.909.607-2.055 14.29.018.07zm-38.179 56.282l-3.273 20.97c0 2.947-.891 6.609 3.363 6.609h2.091c12.018 0 10.109-27.793 10.109-39.707l2.618-16.825 6.363-41.671 1.127-6.609c1.237-7.144 2.128-7.305-3.381-12.146-2.727-2.393-24.817 6.77-26.417 8.253-3 2.804-6.763 22.237-7.272 28.167l-2.182 12.092-7.618 56.818c-.2 1.393-.6 1.536.727 2 2.764.929 2.146 1.911 3.527 1.911 5.182 0 4.491-4.09 4.491-7.716l2.255-14.289 3.363-30.9 3.364-19.862 3.017-20.702a3.73 3.73 0 01.505-1.79 3.8 3.8 0 011.314-1.336c5.727-4.84 14.708-4.572 12.726 2.43a125.232 125.232 0 00-2.818 15.878l-1.127 5.52-3.509 28.632-1.182 5.519-1.127 7.716c-.327 3.805-1.127 7.145-1.127 11.038h.073zm234.733-33.097c-1.472 5.716-21.253 36.33-25.817 27.578l6.873-45.047c5.454-3.25 6.908-5.037 13.235-3.661 8.273 1.786 10.909 4.965 7.582 15.61l-1.818 5.52h-.055zm-4.381-28.578c-5.455.339-10.218 3.286-13.582 5.483 0-6.287 8.655-41.921-1.127-41.921-6.29 1.429-7.854 5.555-7.854 11.039l-4.491 44.135-2.254 14.29c-.655 8.752-8.109 31.739 4.582 32.615 8.145.571 16.908-6.073 22.58-10.896a25.588 25.588 0 001.618-1.554c11.382-11.735 29.817-47.726 2.618-53.084a8.188 8.188 0 00-2.09-.161v.053zm-61.87 58.317c-4.054 6.27 7.636 19.648 10.109 1.108l1.109-5.52 1.127-4.411a334.382 334.382 0 0010.181-75.394c.2-12.753-13.399-8.073-21.235-5.805-15.545 4.466-17.69 49.173-18.181 62.516-.582 17.754-4.582 23.863-15.763 35.276a6.292 6.292 0 002.34 2.427c.99.585 2.123.895 3.278.895 5.618 0 8.236-3.876 10.199-7.859 4.8-9.824 5.782-20.04 7.764-30.775v-2.197c1.981-11.628 6.636-53.799 19.108-54.067v16.54c-1.673 22.88-6.127 44.779-10.109 67.32l.073-.054zM5.854 9.77C12.217 3.894 29.09-.786 40.307 6.323c6.509 4.144 8.854 9.36 7.272 16.54-1.545 7.52-4.8 10.877-9.09 11.467-5.09.714-11.109-3.304-13.781-8.93-2.327-3.573-3.545-8.02-6.09-11.307-3.673-5.001-7.346-3.608-12.764-4.323z" fill="#fff"/></g><defs><clipPath id="clip0"><path fill="#fff" d="M0 0h360v146H0z"/></clipPath></defs></svg>