<svg width="20" height="20" fill="none" xmlns="http://www.w3.org/2000/svg"><path d="M18.501 15.657l-3.845-2.564a1.122 1.122 0 00-1.503.244l-1.12 1.44a.479.479 0 01-.614.13l-.213-.118c-.707-.385-1.586-.865-3.357-2.636-1.77-1.771-2.25-2.651-2.636-3.356l-.117-.213a.48.48 0 01.127-.616l1.44-1.12c.46-.361.566-1.015.244-1.503L4.342 1.499a1.117 1.117 0 00-1.505-.339l-1.608.966A2.268 2.268 0 00.194 3.47C-.385 5.579.051 9.22 5.415 14.585c4.267 4.267 7.444 5.414 9.627 5.414a5.61 5.61 0 001.489-.194 2.267 2.267 0 001.342-1.035l.967-1.607a1.117 1.117 0 00-.339-1.506zM10.5 1A8.51 8.51 0 0119 9.5a.5.5 0 001 0A9.51 9.51 0 0010.5 0a.5.5 0 100 1z" fill="#fff"/><path d="M10.5 4A5.506 5.506 0 0116 9.5a.5.5 0 001 0A6.508 6.508 0 0010.5 3a.5.5 0 100 1z" fill="#fff"/><path d="M10.5 7A2.503 2.503 0 0113 9.5a.5.5 0 001 0A3.504 3.504 0 0010.5 6a.5.5 0 100 1z" fill="#fff"/></svg>