<svg width="190" height="77" fill="none" xmlns="http://www.w3.org/2000/svg"><g clip-path="url(#clip0)"><path d="M70.45 72.337a3.389 3.389 0 01-.441 1.696 2.855 2.855 0 01-1.2 1.14 2.76 2.76 0 01-.787.263 5.81 5.81 0 01-.96.066 3.153 3.153 0 01-1.064-.141 3.373 3.373 0 01-.96-.631v-.594a3.5 3.5 0 001.065.697c.335.138.693.208 1.056.208a3.048 3.048 0 001.554-.358 2.415 2.415 0 001.161-1.574c.065-.252.097-.512.096-.772a2.78 2.78 0 00-.096-.697 3.467 3.467 0 00-.307-.678 2.844 2.844 0 00-.748-.83 2.856 2.856 0 00-2.879-.226 2.415 2.415 0 00-.787.66 2.8 2.8 0 00-.528 1.215 6.21 6.21 0 00-.086 1.121v5.36h-.537v-5.36a6.883 6.883 0 01.105-1.31c.1-.496.32-.961.643-1.356a2.64 2.64 0 01.874-.716 3.117 3.117 0 011.544-.367 3.565 3.565 0 011.574.358c.497.245.916.62 1.209 1.083.336.52.51 1.127.499 1.743zm7.312.113c0 .4-.08.797-.237 1.167-.156.37-.386.705-.674.988a3.104 3.104 0 01-1.01.659c-.376.152-.78.23-1.188.229a3.354 3.354 0 01-1.282-.237 3.307 3.307 0 01-1.088-.705 2.987 2.987 0 01-.727-1.03 2.939 2.939 0 01-.233-1.231 3.048 3.048 0 01.237-1.243c.165-.394.411-.75.723-1.046a3.122 3.122 0 011.047-.705 3.169 3.169 0 011.246-.237 3.125 3.125 0 011.555.395c.477.293.865.706 1.122 1.197l-4.404 2.948-.269-.367 3.982-2.685a2.281 2.281 0 00-.96-.706 3.042 3.042 0 00-1.084-.217 2.766 2.766 0 00-1.314.32c-.398.227-.73.551-.96.942a2.84 2.84 0 00-.403 1.508c-.005.348.06.694.192 1.017.132.323.328.618.576.867a2.616 2.616 0 001.919.782c.355.005.707-.058 1.037-.188.33-.129.63-.322.882-.566.253-.235.453-.518.589-.833a2.43 2.43 0 00.198-.995l.528-.028zm5.757-3.165l-.902 1.526a6.234 6.234 0 01-.576.838 2.242 2.242 0 01-.508.443c.269-.004.535.054.777.17.222.092.417.238.566.424.2.233.33.517.374.82.049.31.068.626.058.941v.942h-.499v-1.055c.016-.25.016-.502 0-.754a1.25 1.25 0 00-.26-.584 1.227 1.227 0 00-.537-.376 2.305 2.305 0 00-.72-.113H79.49v2.826h-.499v-6.048h.499v2.76h1.017a1.07 1.07 0 00.49-.122c.15-.083.288-.184.412-.302a4.32 4.32 0 00.393-.462c.14-.19.269-.388.384-.593l.73-1.281h.604zm5.834 6.076h-.49v-5.652h-.421a4.813 4.813 0 00-.96.075 2.914 2.914 0 00-.835.283 2.434 2.434 0 00-1.2 1.385 4.54 4.54 0 00-.23 1.563v2.346h-1.333v-.462h.863v-1.884a6.48 6.48 0 01.115-1.385c.116-.502.364-.967.72-1.346a2.94 2.94 0 011.17-.773 4.772 4.772 0 011.69-.264h.96v6.114h-.049zm7.677 0h-.5V72.94a7.106 7.106 0 00-.076-1.178 2.8 2.8 0 00-.538-1.196 2.717 2.717 0 00-.68-.603 2.569 2.569 0 00-1.344-.348 2.682 2.682 0 00-1.126.213 2.637 2.637 0 00-.928.663 2.723 2.723 0 00-.748 1.884c-.009.351.058.7.195 1.025.137.324.342.617.601.859a3.007 3.007 0 003.118.546c.357-.173.68-.402.96-.678v.556c-.281.25-.606.447-.96.584a3.034 3.034 0 01-1.16.216 3.435 3.435 0 01-2.293-.82 2.83 2.83 0 01-.782-1.018 2.782 2.782 0 01-.245-1.251 3.133 3.133 0 01.873-2.224 3.146 3.146 0 011.107-.78 3.2 3.2 0 011.34-.246c.518-.01 1.03.11 1.487.348.334.171.628.409.864.697.247.32.436.68.556 1.065.15.546.218 1.11.202 1.676v2.43h.076zm8.635 0h-.585L103.986 70l-.057-.245-.068.056-.105.349-1.372 4.38a7.745 7.745 0 01-.202.64.466.466 0 01-.163.219.486.486 0 01-.259.093.351.351 0 01-.307-.15 3.22 3.22 0 01-.317-.802l-1.343-4.361v-.424l-.106.358-1.247 5.247h-.566l1.2-5.436c.034-.225.112-.443.23-.64a.403.403 0 01.316-.132.39.39 0 01.346.17c.073.12.127.25.163.386l1.257 3.956.278.942.058.18a.59.59 0 00.057.103.178.178 0 000-.057l.106-.226.278-.942 1.257-3.956a1.55 1.55 0 01.154-.386.388.388 0 01.355-.17.436.436 0 01.412.273c.056.164.101.33.135.5l1.189 5.435zm5.643 0h-.49v-3.128h-3.838v3.128h-.47v-6.076h.489v2.487h3.838v-2.487h.471v6.076zm7.676-3.043c.005.42-.078.836-.243 1.223a3.077 3.077 0 01-.717 1.029 3.193 3.193 0 01-4.49 0 3.192 3.192 0 01-.93-2.247c0-.84.334-1.645.93-2.247a3.193 3.193 0 014.49 0c.308.29.552.638.717 1.023.165.386.248.8.243 1.22zm-.499 0a2.665 2.665 0 00-.768-1.884 2.726 2.726 0 00-3.838 0 2.799 2.799 0 00-.777 1.931c0 .718.278 1.408.777 1.931.25.252.548.452.878.59a2.716 2.716 0 002.96-.59c.252-.263.446-.575.57-.915.124-.34.175-.702.15-1.063h.048zm8.156.132a3.03 3.03 0 01-.911 2.155 3.109 3.109 0 01-1.009.659 3.15 3.15 0 01-1.189.229 3.356 3.356 0 01-1.282-.237 3.3 3.3 0 01-1.088-.705 2.943 2.943 0 01-.959-2.26 3.063 3.063 0 01.239-1.243c.165-.393.41-.75.72-1.047a3.166 3.166 0 011.053-.704 3.206 3.206 0 011.25-.238 3.121 3.121 0 011.554.395c.457.3.824.713 1.066 1.197l-4.405 2.948-.278-.367 3.992-2.685a2.309 2.309 0 00-.96-.706 2.925 2.925 0 00-1.084-.217 2.755 2.755 0 00-1.305.32 2.476 2.476 0 00-.96.942 2.85 2.85 0 00-.403 1.508 2.56 2.56 0 00.189 1.018 2.6 2.6 0 00.579.866 2.62 2.62 0 001.919.782 2.73 2.73 0 001.919-.754 2.479 2.479 0 00.787-1.827l.566-.029zm10.315 2.91h-.499v-2.42a6.19 6.19 0 00-.076-1.178 2.685 2.685 0 00-.538-1.196 2.394 2.394 0 00-.894-.716 2.444 2.444 0 00-1.13-.226 2.707 2.707 0 00-1.125.216 2.661 2.661 0 00-.929.66 2.8 2.8 0 00-.739 1.884c-.01.35.054.7.19 1.024a2.5 2.5 0 00.597.86 3.024 3.024 0 003.128.546c.356-.172.68-.401.96-.678v.556a3.097 3.097 0 01-.96.584 2.993 2.993 0 01-1.161.217 3.406 3.406 0 01-2.284-.82 2.894 2.894 0 01-.759-1.025 2.84 2.84 0 01-.239-1.245 3.134 3.134 0 01.874-2.223 3.17 3.17 0 011.108-.777 3.23 3.23 0 011.339-.25 3.056 3.056 0 011.487.349c.338.168.636.406.873.697.248.318.434.679.547 1.064.15.546.218 1.111.201 1.677v2.42h.029zm5.23-5.651h-1.257a4.582 4.582 0 00-.777 0 1.244 1.244 0 00-.762.377 1.2 1.2 0 00-.332.772v4.465h-.49v-3.73a5.112 5.112 0 010-.942c.048-.354.21-.684.461-.942.192-.199.433-.345.7-.424a4.413 4.413 0 011.219-.123h1.228v.547h.01zm6.793 2.703a3 3 0 01-.904 2.186 3.096 3.096 0 01-1.02.668 3.15 3.15 0 01-1.204.227 3.347 3.347 0 01-2.37-.942 2.943 2.943 0 01-.959-2.26 3.047 3.047 0 01.236-1.244c.166-.394.412-.75.723-1.046a3.127 3.127 0 011.047-.705 3.171 3.171 0 011.246-.237 3.125 3.125 0 011.555.395c.474.26.871.637 1.151 1.093l-4.404 2.949-.269-.368 3.963-2.59a2.28 2.28 0 00-.959-.707 3.05 3.05 0 00-1.085-.216 2.766 2.766 0 00-1.314.32 2.614 2.614 0 00-.96.942 2.85 2.85 0 00-.403 1.507c-.005.348.06.694.192 1.017.132.324.328.618.576.867.248.253.546.453.877.588.33.134.685.2 1.042.194a2.703 2.703 0 001.919-.754 2.432 2.432 0 00.787-1.828l.537-.056zm6.026 2.949h-.518v-3.128h-3.838v3.128h-.499v-6.076h.499v2.487h3.838v-2.487h.499l.019 6.076zm5.518-5.652h-2.14v5.652h-.499v-5.652h-2.14v-.462h4.798v.462h-.019zm4.519 5.652h-.873a3.297 3.297 0 01-2.322-.83 2.797 2.797 0 01-.912-2.167 2.908 2.908 0 01.215-1.21 2.95 2.95 0 01.697-1.021 3.244 3.244 0 011.075-.651 3.287 3.287 0 011.247-.197h.873v.424h-.767a2.865 2.865 0 00-1.187.18 2.816 2.816 0 00-1.001.649 2.583 2.583 0 00-.653 1.79c-.02.631.211 1.246.643 1.714a2.867 2.867 0 002.198.82h.767v.499zm5.518-5.652h-2.15v5.652h-.489v-5.652h-2.15v-.462h4.798v.462h-.009zm5.805 3.966a1.43 1.43 0 01-.23.782 1.7 1.7 0 01-1.046.753 4.646 4.646 0 01-1.161.113h-1.593v-.461h1.65a3.64 3.64 0 001.209-.142 1.14 1.14 0 00.511-.419c.125-.186.191-.404.19-.626a1.008 1.008 0 00-.135-.528 1.15 1.15 0 00-.719-.565 4.605 4.605 0 00-1.152-.132h-1.554v-.462h1.535a3.14 3.14 0 00.796-.075c.268-.089.491-.274.624-.518a1.103 1.103 0 00.075-1.006 1.083 1.083 0 00-.257-.36 1.813 1.813 0 00-1.334-.452 2 2 0 00-1.43.509 1.978 1.978 0 00-.527 1.507v3.768h-.499v-3.768a2.399 2.399 0 01.671-1.8 2.55 2.55 0 011.919-.678 2.108 2.108 0 011.622.594c.283.291.438.68.432 1.083.001.213-.038.423-.115.622a1.605 1.605 0 01-.691.754c.362.053.688.242.911.527.22.267.342.599.346.942l-.048.038zm7.292-1.394c.003.419-.081.834-.246 1.221a3.115 3.115 0 01-.713 1.03 3.178 3.178 0 01-1.031.682 3.22 3.22 0 01-2.438 0 3.157 3.157 0 01-1.031-.682 3.209 3.209 0 01-.923-2.247c0-.837.331-1.643.923-2.246a3.158 3.158 0 011.031-.682 3.214 3.214 0 013.469.681 3.1 3.1 0 01.737 1.039c.17.392.256.815.251 1.241l-.029-.037zm-.499 0a2.668 2.668 0 00-1.643-2.474c-.33-.135-.686-.2-1.043-.192a2.674 2.674 0 00-1.041.192 2.62 2.62 0 00-.878.58 2.794 2.794 0 00-.777 1.931c0 .717.277 1.408.777 1.931.249.252.547.452.877.589a2.724 2.724 0 002.083 0c.33-.137.628-.337.878-.589a2.623 2.623 0 00.777-1.884l-.01-.084z" fill="#2C2C2C"/><path fill-rule="evenodd" clip-rule="evenodd" d="M25.821 31.83l1.92-7.093.48 13.951c0 1.187-1.92 1.536-3.071 2.139-1.324.716-.912-1.423-.74-1.997l.845-4.089.566-2.91zm10.642-8.732v-5.2a8.384 8.384 0 00-1.884-5.093 8.653 8.653 0 00-4.641-2.933c-1.228-.245-1.391-.17-1.92.999-1.784 4.342-5.852 20.215-6.908 25.03l-.624 1.78c-2.629 7.752-3.704 15.166-4.74 23.277 5.105-3.363 6.986-11.305 7.11-16.881a21.95 21.95 0 001.775-.471c4.558-1.385 3.397-2.261 4.165 8.035a68.6 68.6 0 002.36 14.554c5.556-6.311 5.307-28.128 5.307-40.76v-2.337zm78.875-14.545h-2.38c-1.919.076-3.464.773-3.55 3.486l-6.525 35.504-1.171 6.397c0 2.77-.96 6.405 2.965 6.405h.585c4.798 0 16.159-5.228 16.601-10.475h-1.776c-9.941.217-10.67 10.833-10.67-4.079l.595-5.237c.432-2.421.25-4.88 2.111-6.595a53.521 53.521 0 0011.659-3.325c.326-1.102-1.065-2.572-3.081-2.882a12.142 12.142 0 00-5.93 2.326l-2.37.585c.288-3.495 2.735-10.683 3.915-14.197 1.392-4.145 8.022-5.821 12.091-6.754-1.737-7.32-8.809-2.543-13.041-1.159h-.028zM94.036 12.04a8.676 8.676 0 01-.662 2.393c-2.217 5.426-9.452 13.696-12.427 15.646v-1.742l1.19-5.238.595-4.653c1.248-5.257-.652-3.392 3.944-5.436 1.602-.716 7.36-3.956 7.36-.97zm-18.424 12.8l-.585 3.495c-.595 10.089-3.166 20.394-1.785 30.267 0 2.241.653 1.836 1.977.584 0-1.979-.614-5.473-.154-7.33l.96-4.125c.422-.547.259-2.742.393-3.561 1.325-8.101 7.62-8.158 12.32-13.98 2.198-2.731 10.556-15.496 10.556-19.31 0-5.446-12.206-2.996-17.636-1.8a4.415 4.415 0 01-2.016.141c-.777-.292-1.43 2.176-1.506 2.27-2.169.943-2.514 2.657-4.011 4.22 0 .67-.182 1.075.499 1.235l2.063.32-1.084 7.536.01.038zm-20.15 29.684l-1.727 11.059c0 1.554-.47 3.485 1.775 3.485h1.103c6.343 0 5.335-14.657 5.335-20.94l1.382-8.874 3.359-21.977.595-3.486c.652-3.768 1.122-3.853-1.785-6.406-1.44-1.262-13.098 3.57-13.942 4.353-1.584 1.478-3.57 11.727-3.839 14.855l-1.151 6.377-4.02 29.966c-.106.734-.317.81.383 1.055 1.459.49 1.132 1.008 1.862 1.008 2.734 0 2.37-2.157 2.37-4.07l1.19-7.536 1.775-16.297 1.775-10.475 1.593-10.918a1.96 1.96 0 01.266-.944c.168-.288.406-.53.693-.704 3.023-2.553 7.763-2.412 6.717 1.28a65.968 65.968 0 00-1.487 8.375l-.595 2.911-1.852 15.1-.624 2.912-.595 4.069c-.172 2.007-.595 3.768-.595 5.822h.039zm123.887-17.456c-.777 3.015-11.217 19.16-13.626 14.545l3.628-23.758c2.878-1.714 3.646-2.656 6.985-1.93 4.366.941 5.757 2.618 4.001 8.232l-.959 2.911h-.029zm-2.312-15.072c-2.879.179-5.393 1.733-7.168 2.892 0-3.316 4.567-22.11-.595-22.11-3.32.755-4.145 2.93-4.145 5.823l-2.371 23.277-1.189 7.536c-.346 4.616-4.28 16.74 2.418 17.2 4.298.302 8.923-3.202 11.917-5.745.279-.245.566-.519.854-.82 6.007-6.189 15.737-25.17 1.382-27.997a4.323 4.323 0 00-1.103-.084v.028zm-32.654 30.757c-2.14 3.306 4.03 10.362 5.335.584l.586-2.911.594-2.327a176.258 176.258 0 005.374-39.762c.105-6.726-7.072-4.258-11.208-3.062-8.204 2.355-9.336 25.934-9.595 32.97-.307 9.364-2.418 12.586-8.319 18.605.285.53.712.972 1.235 1.28.522.309 1.12.472 1.73.472 2.965 0 4.346-2.044 5.383-4.144 2.533-5.181 3.051-10.57 4.097-16.231v-1.159c1.046-6.132 3.502-28.373 10.085-28.515v8.723c-.883 12.068-3.234 23.617-5.335 35.505l.038-.028zM3.09 5.153c3.358-3.1 12.263-5.567 18.183-1.818 3.435 2.185 4.673 4.936 3.838 8.723-.815 3.966-2.533 5.737-4.797 6.047-2.687.377-5.863-1.742-7.274-4.71-1.228-1.884-1.87-4.23-3.214-5.963C7.887 4.795 5.949 5.53 3.09 5.152z" fill="#8EBA44"/></g><defs><clipPath id="clip0"><path fill="#fff" d="M0 0h190v77H0z"/></clipPath></defs></svg>