<svg width="20" height="18" fill="none" xmlns="http://www.w3.org/2000/svg"><path d="M19.622.247c-.34-.286-.877-.327-1.43-.107h-.002C17.608.372 1.696 7.123 1.048 7.4c-.117.04-1.146.42-1.04 1.266.094.762.921 1.078 1.022 1.115l4.045 1.37c.269.884 1.258 4.145 1.477 4.841.136.434.359 1.005.749 1.122.342.13.682.012.902-.16l2.473-2.269 3.993 3.08.095.057c.27.119.53.178.779.178.191 0 .375-.035.55-.107.599-.243.838-.806.863-.87l2.982-15.335c.182-.82-.07-1.236-.316-1.44zM8.643 11.7l-1.365 3.6-1.364-4.5 10.462-7.65-7.733 8.55z" fill="#fff"/></svg>